<?xml version="1.0" ?><!DOCTYPE svg  PUBLIC '-//W3C//DTD SVG 1.1//EN'  'http://www.w3.org/Graphics/SVG/1.1/DTD/svg11.dtd'><svg enable-background="new 0 0 500 500" id="Layer_1" version="1.1" viewBox="0 0 500 500" xml:space="preserve" xmlns="http://www.w3.org/2000/svg" xmlns:xlink="http://www.w3.org/1999/xlink"><path clip-rule="evenodd" d="M260.951,199.531c19.628,4.543,35.244,21.257,39.787,39.518  c1.551,8.543,8.994,14.995,17.904,14.995c9.991,0,18.173-8.181,18.173-18.172c0-13.077-10.996-32.978-25.982-47.875  c-14.726-14.543-32.261-24.808-46.703-24.808c-9.995,0-18.172,8.456-18.172,18.446C245.958,190.533,252.408,197.987,260.951,199.531  z M91.506,249.5c0,9.174,0.726,18.26,2.27,26.991l-31.71,10.354c-11.991,3.901-18.529,16.717-14.626,28.615  c3.909,11.994,16.72,18.443,28.618,14.63l31.71-10.354c8.083,16.35,18.9,31.159,31.8,43.694l-19.626,27.071  c-7.355,10.175-5.083,24.354,5.09,31.709c10.083,7.368,24.35,5.183,31.706-4.993l19.63-27.07  c15.717,8.356,33.068,14.168,51.421,16.716v33.433c0,12.537,10.177,22.712,22.713,22.712c12.537,0,22.715-10.175,22.715-22.712  v-33.433c18.349-2.548,35.702-8.359,51.427-16.716l19.623,27.07c7.355,10.176,21.623,12.361,31.711,4.993  c10.167-7.354,12.439-21.534,5.085-31.709l-19.716-27.071c12.991-12.535,23.804-27.345,31.801-43.694l31.798,10.354  c11.898,3.813,24.709-2.636,28.614-14.63c3.904-11.898-2.629-24.714-14.622-28.615l-31.71-10.354  c1.544-8.73,2.27-17.816,2.27-26.991c0-9.174-0.726-18.26-2.27-26.981l31.71-10.364c11.993-3.903,18.526-16.715,14.622-28.613  c-3.905-11.996-16.716-18.445-28.614-14.632l-31.798,10.355c-7.997-16.342-18.81-31.159-31.801-43.786l19.716-26.981  c7.354-10.177,5.082-24.354-5.085-31.709c-10.088-7.357-24.355-5.183-31.711,4.994l-19.623,26.981  c-15.812-8.269-33.078-14.08-51.427-16.617v-33.44c0-12.538-10.178-22.715-22.715-22.715c-12.536,0-22.713,10.177-22.713,22.715  v33.44c-18.354,2.537-35.704,8.349-51.421,16.617l-19.63-26.981c-7.355-10.177-21.623-12.351-31.706-4.994  c-10.173,7.355-12.445,21.533-5.09,31.709l19.626,26.981c-12.899,12.626-23.717,27.444-31.8,43.786l-31.71-10.355  c-11.898-3.813-24.709,2.637-28.618,14.632c-3.903,11.898,2.635,24.709,14.626,28.613l31.71,10.364  C92.232,231.241,91.506,240.327,91.506,249.5z M136.933,249.5c0-62.693,50.879-113.568,113.568-113.568  c62.694,0,113.569,50.875,113.569,113.568c0,62.694-50.875,113.569-113.569,113.569C187.812,363.069,136.933,312.194,136.933,249.5z  " fill="#010101" fill-rule="evenodd"/></svg>
