<?xml version="1.0" ?><!DOCTYPE svg  PUBLIC '-//W3C//DTD SVG 1.1//EN'  'http://www.w3.org/Graphics/SVG/1.1/DTD/svg11.dtd'><svg enable-background="new 0 0 64 64" id="Layer_1" version="1.1" viewBox="0 0 64 64" xml:space="preserve" xmlns="http://www.w3.org/2000/svg" xmlns:xlink="http://www.w3.org/1999/xlink"><g><path d="M18.228,16.441c2.002,0,3.625-1.623,3.625-3.625c0-2.583-3.625-6.625-3.625-6.625s-3.625,4.042-3.625,6.625   C14.603,14.818,16.226,16.441,18.228,16.441z"/><path d="M11.789,10.227c0-1.573-2.209-4.036-2.209-4.036s-2.208,2.463-2.208,4.036c0,1.22,0.989,2.209,2.208,2.209   C10.799,12.436,11.789,11.447,11.789,10.227z"/><path d="M34.865,9.072V8.818c0-0.957-0.795-1.733-1.775-1.733c-0.981,0-1.776,0.776-1.776,1.733v0.256   c-2.749,0.207-5.354,0.907-7.758,1.977c0.185,0.599,0.298,1.195,0.298,1.764c0,3.102-2.523,5.625-5.625,5.625   c-1.172,0-2.26-0.361-3.162-0.976c-3.366,4.027-5.427,9.183-5.481,14.831c0.062-3.192,2.665-5.764,5.872-5.764   c3.248,0,5.88,2.632,5.88,5.878c0-3.246,2.632-5.878,5.878-5.878c1.226,0,2.363,0.376,3.305,1.017v23.367   c0,3.743,2.999,6.799,6.721,6.891l0.172,0.002v-0.002c3.722-0.092,6.721-3.147,6.721-6.891c0-1.381-1.119-2.5-2.5-2.5   s-2.5,1.119-2.5,2.5c0,1.015-0.803,1.846-1.807,1.891c-1.004-0.045-1.807-0.876-1.807-1.891V27.66   c0.97-0.706,2.161-1.128,3.453-1.128c3.247,0,5.879,2.632,5.879,5.878c0-3.246,2.632-5.878,5.879-5.878   c3.247,0,5.879,2.632,5.879,5.878c0,0.039,0.019,0.114,0.019,0.114C56.628,20.125,47.034,9.974,34.865,9.072z"/></g></svg>
